<mxfile host="app.diagrams.net" modified="2024-01-15T11:30:16.221Z" agent="Mozilla/5.0 (Macintosh; Intel Mac OS X 10_15_7) AppleWebKit/537.36 (KHTML, like Gecko) Chrome/120.0.0.0 Safari/537.36" version="22.1.18" etag="elGvRpRUDLiQqJ2qUgZt" type="github">
  <diagram name="Page-1" id="u-c6ESPg0JhGK6C3f6eu">
    <mxGraphModel>
      <root>
        <mxCell id="0" />
        <mxCell id="1" parent="0" />
      </root>
    </mxGraphModel>
  </diagram>
</mxfile>
